<svg xmlns="http://www.w3.org/2000/svg" xmlns:xlink="http://www.w3.org/1999/xlink" width="500" zoomAndPan="magnify" viewBox="0 0 375 374.999991" height="500" preserveAspectRatio="xMidYMid meet" version="1.0"><defs><clipPath id="963dc881a0"><path d="M 79.257812 162.800781 L 167.472656 162.800781 L 167.472656 332.765625 L 79.257812 332.765625 Z M 79.257812 162.800781 " clip-rule="nonzero"/></clipPath><clipPath id="6e8c02f1ee"><path d="M 0.257812 0.800781 L 88.472656 0.800781 L 88.472656 170.765625 L 0.257812 170.765625 Z M 0.257812 0.800781 " clip-rule="nonzero"/></clipPath><clipPath id="d19b613aab"><rect x="0" width="89" y="0" height="171"/></clipPath><clipPath id="51091b513a"><path d="M 79.257812 162.800781 L 251.210938 162.800781 L 251.210938 251.015625 L 79.257812 251.015625 Z M 79.257812 162.800781 " clip-rule="nonzero"/></clipPath><clipPath id="e0ad4c4437"><path d="M 217.214844 162.800781 L 79.257812 162.800781 L 113.089844 251.015625 L 251.046875 251.015625 Z M 217.214844 162.800781 " clip-rule="nonzero"/></clipPath><clipPath id="7612c9a402"><path d="M 0.257812 0.800781 L 172.210938 0.800781 L 172.210938 89.015625 L 0.257812 89.015625 Z M 0.257812 0.800781 " clip-rule="nonzero"/></clipPath><clipPath id="a5ecb5e980"><path d="M 138.214844 0.800781 L 0.257812 0.800781 L 34.089844 89.015625 L 172.046875 89.015625 Z M 138.214844 0.800781 " clip-rule="nonzero"/></clipPath><clipPath id="10716c5391"><rect x="0" width="173" y="0" height="90"/></clipPath><clipPath id="b57e990a8a"><path d="M 37.5 42.234375 L 337.648438 42.234375 L 337.648438 130.453125 L 37.5 130.453125 Z M 37.5 42.234375 " clip-rule="nonzero"/></clipPath><clipPath id="9d38861ad2"><path d="M 303.667969 42.234375 L 37.5 42.234375 L 71.332031 130.453125 L 337.5 130.453125 Z M 303.667969 42.234375 " clip-rule="nonzero"/></clipPath><clipPath id="8a2c9d1750"><path d="M 0.5 0.234375 L 300.648438 0.234375 L 300.648438 88.453125 L 0.5 88.453125 Z M 0.5 0.234375 " clip-rule="nonzero"/></clipPath><clipPath id="4db030504b"><path d="M 266.667969 0.234375 L 0.5 0.234375 L 34.332031 88.453125 L 300.5 88.453125 Z M 266.667969 0.234375 " clip-rule="nonzero"/></clipPath><clipPath id="c254ed4aef"><rect x="0" width="301" y="0" height="89"/></clipPath></defs><g clip-path="url(#963dc881a0)"><g transform="matrix(1, 0, 0, 1, 79, 162)"><g clip-path="url(#d19b613aab)"><g clip-path="url(#6e8c02f1ee)"><path fill="#8c271e" d="M 0.257812 0.800781 L 88.472656 0.800781 L 88.472656 170.6875 L 0.257812 170.6875 Z M 0.257812 0.800781 " fill-opacity="1" fill-rule="nonzero"/></g></g></g></g><g clip-path="url(#51091b513a)"><g clip-path="url(#e0ad4c4437)"><g transform="matrix(1, 0, 0, 1, 79, 162)"><g clip-path="url(#10716c5391)"><g clip-path="url(#7612c9a402)"><g clip-path="url(#a5ecb5e980)"><path fill="#8c271e" d="M 0.257812 0.800781 L 172.210938 0.800781 L 172.210938 89.015625 L 0.257812 89.015625 Z M 0.257812 0.800781 " fill-opacity="1" fill-rule="nonzero"/></g></g></g></g></g></g><g clip-path="url(#b57e990a8a)"><g clip-path="url(#9d38861ad2)"><g transform="matrix(1, 0, 0, 1, 37, 42)"><g clip-path="url(#c254ed4aef)"><g clip-path="url(#8a2c9d1750)"><g clip-path="url(#4db030504b)"><path fill="#8c271e" d="M 0.5 0.234375 L 300.648438 0.234375 L 300.648438 88.453125 L 0.5 88.453125 Z M 0.5 0.234375 " fill-opacity="1" fill-rule="nonzero"/></g></g></g></g></g></g></svg>