<svg xmlns="http://www.w3.org/2000/svg" xmlns:xlink="http://www.w3.org/1999/xlink" width="500" zoomAndPan="magnify" viewBox="0 0 375 374.999991" height="500" preserveAspectRatio="xMidYMid meet" version="1.0"><defs><clipPath id="9e4651a97d"><path d="M 79.257812 162.800781 L 167.472656 162.800781 L 167.472656 332.765625 L 79.257812 332.765625 Z M 79.257812 162.800781 " clip-rule="nonzero"/></clipPath><clipPath id="bafb4232bc"><path d="M 0.257812 0.800781 L 88.472656 0.800781 L 88.472656 170.765625 L 0.257812 170.765625 Z M 0.257812 0.800781 " clip-rule="nonzero"/></clipPath><clipPath id="fec892a423"><rect x="0" width="89" y="0" height="171"/></clipPath><clipPath id="fc2fb45212"><path d="M 79.257812 162.800781 L 251.210938 162.800781 L 251.210938 251.015625 L 79.257812 251.015625 Z M 79.257812 162.800781 " clip-rule="nonzero"/></clipPath><clipPath id="ca7f67ae0d"><path d="M 217.214844 162.800781 L 79.257812 162.800781 L 113.089844 251.015625 L 251.046875 251.015625 Z M 217.214844 162.800781 " clip-rule="nonzero"/></clipPath><clipPath id="5b599cea63"><path d="M 0.257812 0.800781 L 172.210938 0.800781 L 172.210938 89.015625 L 0.257812 89.015625 Z M 0.257812 0.800781 " clip-rule="nonzero"/></clipPath><clipPath id="c2828ab0ae"><path d="M 138.214844 0.800781 L 0.257812 0.800781 L 34.089844 89.015625 L 172.046875 89.015625 Z M 138.214844 0.800781 " clip-rule="nonzero"/></clipPath><clipPath id="b0d68a76e4"><rect x="0" width="173" y="0" height="90"/></clipPath><clipPath id="4f47ad69ab"><path d="M 37.5 42.234375 L 337.648438 42.234375 L 337.648438 130.453125 L 37.5 130.453125 Z M 37.5 42.234375 " clip-rule="nonzero"/></clipPath><clipPath id="fd78380b19"><path d="M 303.667969 42.234375 L 37.5 42.234375 L 71.332031 130.453125 L 337.5 130.453125 Z M 303.667969 42.234375 " clip-rule="nonzero"/></clipPath><clipPath id="c1cf4a63fb"><path d="M 0.5 0.234375 L 300.648438 0.234375 L 300.648438 88.453125 L 0.5 88.453125 Z M 0.5 0.234375 " clip-rule="nonzero"/></clipPath><clipPath id="50763b643e"><path d="M 266.667969 0.234375 L 0.5 0.234375 L 34.332031 88.453125 L 300.5 88.453125 Z M 266.667969 0.234375 " clip-rule="nonzero"/></clipPath><clipPath id="e664bd44b3"><rect x="0" width="301" y="0" height="89"/></clipPath></defs><g clip-path="url(#9e4651a97d)"><g transform="matrix(1, 0, 0, 1, 79, 162)"><g clip-path="url(#fec892a423)"><g clip-path="url(#bafb4232bc)"><path fill="#f4d35e" d="M 0.257812 0.800781 L 88.472656 0.800781 L 88.472656 170.6875 L 0.257812 170.6875 Z M 0.257812 0.800781 " fill-opacity="1" fill-rule="nonzero"/></g></g></g></g><g clip-path="url(#fc2fb45212)"><g clip-path="url(#ca7f67ae0d)"><g transform="matrix(1, 0, 0, 1, 79, 162)"><g clip-path="url(#b0d68a76e4)"><g clip-path="url(#5b599cea63)"><g clip-path="url(#c2828ab0ae)"><path fill="#f4d35e" d="M 0.257812 0.800781 L 172.210938 0.800781 L 172.210938 89.015625 L 0.257812 89.015625 Z M 0.257812 0.800781 " fill-opacity="1" fill-rule="nonzero"/></g></g></g></g></g></g><g clip-path="url(#4f47ad69ab)"><g clip-path="url(#fd78380b19)"><g transform="matrix(1, 0, 0, 1, 37, 42)"><g clip-path="url(#e664bd44b3)"><g clip-path="url(#c1cf4a63fb)"><g clip-path="url(#50763b643e)"><path fill="#f4d35e" d="M 0.5 0.234375 L 300.648438 0.234375 L 300.648438 88.453125 L 0.5 88.453125 Z M 0.5 0.234375 " fill-opacity="1" fill-rule="nonzero"/></g></g></g></g></g></g></svg>