<svg xmlns="http://www.w3.org/2000/svg" xmlns:xlink="http://www.w3.org/1999/xlink" width="500" zoomAndPan="magnify" viewBox="0 0 375 187.499995" height="250" preserveAspectRatio="xMidYMid meet" version="1.0"><defs><clipPath id="2070f7009e"><path d="M 53.449219 0 L 321.234375 0 L 321.234375 187 L 53.449219 187 Z M 53.449219 0 " clip-rule="nonzero"/></clipPath></defs><g clip-path="url(#2070f7009e)"><path fill="#030303" d="M 53.515625 154.710938 C 53.75 154.507812 53.714844 154.207031 53.75 153.972656 C 54.019531 152.296875 54.820312 150.855469 55.824219 149.515625 C 57.300781 147.570312 59.074219 145.960938 60.980469 144.453125 C 64.699219 141.46875 68.683594 138.921875 72.699219 136.441406 C 74.609375 135.269531 76.550781 134.128906 78.492188 133.023438 C 78.894531 132.789062 79.097656 132.519531 79.128906 132.050781 C 79.230469 130.105469 79.363281 128.160156 79.53125 126.21875 C 79.800781 123.101562 80.132812 119.980469 81.039062 116.964844 C 81.675781 114.753906 83.011719 113.011719 84.652344 111.46875 C 86.292969 109.890625 88.101562 108.585938 90.042969 107.410156 C 90.414062 107.210938 90.578125 106.941406 90.648438 106.539062 C 91.886719 99.300781 93.660156 92.191406 95.804688 85.1875 C 98.28125 77.074219 101.328125 69.164062 105.144531 61.554688 C 108.324219 55.21875 112.042969 49.21875 116.527344 43.722656 C 120.011719 39.464844 123.996094 35.742188 128.179688 32.222656 C 139.128906 23.074219 151.316406 15.964844 164.707031 11.074219 C 167.554688 10.03125 170.46875 9.0625 173.445312 8.390625 C 173.78125 8.324219 174.082031 8.15625 174.382812 7.988281 C 180.613281 4.636719 187.109375 2.054688 193.972656 0.277344 C 194.238281 0.210938 194.574219 0.277344 194.773438 0.0117188 C 195.945312 0.0117188 197.117188 0.0117188 198.324219 0.0117188 C 199.664062 0.210938 201.003906 0.0429688 202.339844 0.078125 C 205.320312 0.0429688 208.269531 0.109375 211.246094 0.179688 C 215.097656 0.246094 218.949219 0.3125 222.765625 0.78125 C 225.476562 1.082031 227.921875 2.023438 229.796875 4.101562 C 230.097656 4.433594 230.398438 4.667969 230.867188 4.738281 C 235.054688 5.40625 239.136719 6.511719 243.1875 7.6875 C 248.179688 9.128906 253.167969 10.636719 257.886719 12.78125 C 260.5 13.957031 262.941406 15.328125 265.085938 17.238281 C 265.890625 17.945312 266.59375 18.78125 267.160156 19.6875 C 268.03125 21.027344 269.339844 21.867188 270.511719 22.90625 C 273.089844 25.183594 275.5 27.597656 277.84375 30.113281 C 280.988281 33.496094 284.035156 37.019531 286.984375 40.570312 C 291.101562 45.597656 295.285156 50.59375 298.566406 56.257812 C 301.515625 61.386719 303.957031 66.71875 305.933594 72.316406 C 308.3125 79.019531 309.984375 85.925781 311.089844 92.964844 C 311.59375 96.046875 312.027344 99.164062 312.160156 102.28125 C 312.195312 102.988281 312.328125 103.722656 312.328125 104.429688 C 312.328125 105.132812 312.664062 105.636719 313.300781 105.96875 C 314.335938 106.507812 315.375 107.109375 316.378906 107.679688 C 316.949219 107.980469 317.25 108.382812 317.316406 109.054688 C 317.585938 111.601562 317.820312 114.148438 318.085938 116.730469 C 318.253906 118.472656 318.457031 120.183594 318.589844 121.925781 C 318.625 122.261719 318.824219 122.53125 318.957031 122.796875 C 319.894531 124.609375 320.867188 126.386719 321.132812 128.464844 C 321.167969 128.832031 321.035156 129.199219 321.234375 129.570312 C 321.234375 130.84375 321.234375 132.152344 321.234375 133.425781 C 320.933594 137.648438 318.355469 140.53125 315.375 143.113281 C 311.726562 146.296875 307.507812 148.542969 303.15625 150.621094 C 302.851562 150.753906 302.351562 150.820312 302.382812 151.191406 C 302.417969 151.625 302.921875 151.527344 303.253906 151.59375 C 304.660156 151.859375 306.066406 151.929688 307.472656 152.164062 C 308.378906 152.296875 308.476562 152.496094 308.242188 153.335938 C 306.9375 158.261719 305.597656 163.15625 304.292969 168.085938 C 303.457031 171.203125 302.617188 174.285156 301.847656 177.402344 C 301.582031 178.476562 301.046875 178.914062 299.941406 178.980469 C 298.367188 179.046875 296.828125 178.878906 295.320312 178.511719 C 294.648438 178.34375 294.347656 178.542969 294.113281 179.179688 C 293.78125 180.152344 293.445312 181.160156 293.011719 182.097656 C 292.40625 183.335938 291.972656 183.570312 290.597656 183.304688 C 283.601562 181.863281 276.636719 180.253906 269.671875 178.644531 C 260.164062 176.433594 250.65625 174.1875 241.179688 171.804688 C 240.644531 171.671875 240.140625 171.707031 239.605469 171.871094 C 233.847656 173.582031 228.089844 175.292969 222.332031 176.933594 C 212.019531 179.882812 201.707031 182.734375 191.160156 184.710938 C 186.472656 185.582031 181.75 186.253906 176.996094 186.6875 C 175.054688 186.855469 173.113281 186.890625 171.136719 186.925781 C 170.835938 186.925781 170.535156 186.824219 170.265625 186.992188 C 167.152344 186.992188 164.039062 186.992188 160.957031 186.992188 C 159.921875 186.789062 158.816406 186.855469 157.777344 186.855469 C 153.058594 186.789062 148.402344 186.1875 143.714844 185.515625 C 131.191406 183.738281 118.804688 181.226562 106.550781 178.207031 C 96.070312 175.628906 85.691406 172.675781 75.480469 169.15625 C 70.121094 167.28125 64.800781 165.269531 59.777344 162.621094 C 58.167969 161.78125 56.597656 160.878906 55.289062 159.570312 C 54.183594 158.429688 53.550781 157.15625 53.515625 155.582031 C 53.515625 155.449219 53.550781 155.3125 53.449219 155.214844 C 53.515625 155.046875 53.515625 154.878906 53.515625 154.710938 Z M 53.515625 154.710938 " fill-opacity="1" fill-rule="nonzero"/></g><path fill="#face72" d="M 214.261719 3.027344 C 210.144531 2.894531 206.023438 2.792969 201.90625 2.691406 C 200.199219 2.660156 198.492188 2.660156 196.785156 2.589844 C 195.679688 2.558594 194.574219 2.660156 193.503906 3.0625 C 193.433594 3.0625 193.367188 3.027344 193.300781 3.027344 C 193.132812 3.0625 193 3.0625 192.832031 3.128906 C 189.753906 4 186.707031 5.039062 183.726562 6.277344 C 179.339844 8.089844 175.085938 10.132812 171.238281 12.984375 C 164.171875 18.179688 157.542969 23.878906 151.382812 30.144531 C 147.164062 34.4375 143.214844 38.996094 139.597656 43.824219 C 134.441406 50.695312 130.054688 57.96875 126.773438 65.914062 C 126.503906 66.582031 126.171875 67.253906 126.035156 67.957031 C 125.636719 69.769531 125.234375 71.578125 124.898438 73.386719 C 123.894531 78.550781 122.890625 83.679688 121.917969 88.839844 C 121.082031 93.265625 120.246094 97.722656 119.476562 102.183594 C 118.738281 106.371094 117.96875 110.5625 117.265625 114.753906 C 116.59375 118.808594 115.925781 122.898438 115.289062 126.953125 C 114.789062 130.140625 114.351562 133.355469 113.917969 136.574219 C 113.617188 138.820312 113.382812 141.101562 113.246094 143.378906 C 113.214844 143.984375 113.246094 144.621094 113.246094 145.222656 C 113.28125 145.792969 113.515625 146.164062 114.085938 146.328125 C 114.519531 146.429688 114.953125 146.597656 115.390625 146.730469 C 119.007812 147.703125 122.6875 148.476562 126.339844 149.210938 C 132.230469 150.417969 138.15625 151.527344 144.050781 152.632812 C 144.71875 152.765625 144.753906 152.730469 144.820312 152.027344 C 144.953125 150.453125 145.054688 148.878906 145.1875 147.300781 C 145.355469 144.886719 145.558594 142.441406 145.722656 139.996094 C 145.957031 136.640625 146.226562 133.257812 146.460938 129.90625 C 146.660156 127.355469 146.828125 124.777344 147.03125 122.226562 C 147.265625 119.179688 147.5 116.128906 147.734375 113.109375 C 147.96875 110.394531 148.167969 107.679688 148.4375 104.964844 C 148.703125 102.015625 149.039062 99.097656 149.339844 96.183594 C 149.609375 93.800781 149.875 91.457031 150.410156 89.109375 C 151.082031 86.125 152.050781 83.242188 152.988281 80.328125 C 155.769531 71.777344 159.082031 63.464844 163.035156 55.386719 C 166.347656 48.550781 170.097656 41.945312 174.550781 35.742188 C 175.355469 34.605469 176.191406 33.496094 176.996094 32.359375 C 176.960938 32.359375 176.960938 32.324219 176.929688 32.324219 C 176.929688 32.324219 176.960938 32.324219 176.960938 32.324219 C 177.195312 32.023438 177.429688 31.753906 177.699219 31.585938 C 180.710938 27.867188 183.960938 24.378906 187.644531 21.328125 C 190.523438 18.949219 193.601562 16.769531 196.648438 14.59375 C 202.105469 10.703125 207.699219 7.050781 213.625 3.933594 C 214.09375 3.699219 214.527344 3.464844 214.996094 3.226562 C 214.730469 3.027344 214.496094 3.027344 214.261719 3.027344 Z M 150.644531 71.34375 C 149.039062 71.210938 147.464844 71.042969 145.859375 70.875 C 143.378906 70.640625 140.902344 70.371094 138.425781 70.136719 C 135.714844 69.867188 133 69.601562 130.289062 69.332031 C 129.753906 69.265625 129.550781 69.0625 129.621094 68.628906 C 129.652344 68.226562 129.921875 68.058594 130.457031 68.089844 C 130.722656 68.125 130.992188 68.160156 131.261719 68.191406 L 131.261719 68.160156 C 135.042969 68.492188 138.828125 68.796875 142.609375 69.097656 C 145.324219 69.332031 148.035156 69.53125 150.78125 69.769531 C 151.347656 69.800781 151.582031 70.003906 151.617188 70.4375 C 151.652344 71.007812 151.28125 71.375 150.644531 71.34375 Z M 150.644531 71.34375 " fill-opacity="1" fill-rule="nonzero"/><path fill="#ffffff" d="M 236.960938 11.273438 C 230.835938 13.386719 228.925781 4.46875 230.835938 18.445312 C 232.742188 32.425781 260.363281 58.503906 268.402344 60.953125 C 276.4375 63.398438 294.25 61.65625 288.15625 52.738281 C 282.0625 43.824219 267.53125 27.730469 261.066406 22.132812 C 254.605469 16.535156 236.960938 11.273438 236.960938 11.273438 Z M 236.960938 11.273438 " fill-opacity="1" fill-rule="nonzero"/><path fill="#ffffff" d="M 124.699219 166.980469 C 146.460938 168.019531 197.417969 167.75 203.042969 166.980469 C 208.667969 166.207031 220.589844 163.058594 215.097656 168.019531 C 209.605469 173.011719 195.710938 181.125 178.269531 181.929688 C 160.859375 182.699219 150.378906 184.679688 136.617188 179.953125 C 122.855469 175.226562 119.207031 173.246094 119.84375 172.746094 C 120.511719 172.207031 124.699219 166.980469 124.699219 166.980469 Z M 124.699219 166.980469 " fill-opacity="1" fill-rule="nonzero"/><path fill="#f5ab34" d="M 317.652344 126.25 C 317.484375 125.914062 317.382812 125.511719 317.148438 125.210938 C 316.914062 125.34375 316.882812 125.546875 316.78125 125.714844 C 316.179688 126.820312 315.609375 127.925781 315.007812 129.03125 C 312.5625 133.457031 309.214844 137.042969 304.929688 139.726562 C 302.820312 141.035156 300.609375 142.207031 298.398438 143.347656 C 292.375 146.464844 286.179688 149.144531 279.652344 151.089844 C 279.046875 151.257812 278.480469 151.457031 277.875 151.59375 C 277.339844 151.726562 276.90625 151.457031 276.769531 150.957031 C 276.636719 150.417969 276.839844 150.050781 277.40625 149.816406 C 277.542969 149.78125 277.675781 149.75 277.808594 149.714844 C 279.550781 149.210938 281.292969 148.675781 283 148.074219 C 288.589844 146.09375 293.949219 143.582031 299.171875 140.867188 C 301.078125 139.859375 302.953125 138.855469 304.726562 137.648438 C 304.960938 137.480469 305.230469 137.378906 305.363281 137.078125 C 305.03125 137.011719 304.761719 136.945312 304.460938 136.910156 C 302.988281 136.710938 301.546875 136.476562 300.109375 136.273438 C 299.003906 136.105469 298 135.769531 297.496094 134.664062 C 297.261719 134.832031 297.0625 134.964844 296.859375 135.132812 C 294.75 136.710938 292.574219 138.152344 290.296875 139.457031 C 284.707031 142.675781 278.746094 145.023438 272.550781 146.898438 C 264.582031 149.3125 256.449219 150.855469 248.3125 152.363281 C 247.308594 152.53125 247.308594 152.53125 247.207031 153.570312 C 247.074219 155.449219 246.136719 156.554688 244.328125 156.957031 C 243.890625 157.054688 243.421875 157.125 242.988281 157.15625 C 239.671875 157.324219 236.390625 157.859375 233.109375 158.363281 C 227.351562 159.269531 221.59375 160.273438 215.800781 160.8125 C 214.429688 160.945312 213.191406 160.742188 212.050781 159.9375 C 211.214844 159.335938 210.308594 158.867188 209.371094 158.496094 C 208.46875 158.164062 207.632812 157.660156 206.894531 157.023438 C 206.628906 156.789062 206.359375 156.722656 206.023438 156.753906 C 202.308594 157.089844 198.558594 157.324219 194.808594 157.425781 C 189.316406 157.558594 183.828125 157.558594 178.335938 157.292969 C 174.753906 157.125 171.171875 156.820312 167.621094 156.488281 C 166.515625 156.386719 165.445312 156.253906 164.339844 156.117188 C 163.636719 156.015625 163.335938 155.613281 163.402344 154.976562 C 163.46875 154.441406 163.769531 154.242188 164.539062 154.339844 C 167.453125 154.675781 170.398438 154.945312 173.3125 155.179688 C 177.128906 155.480469 180.945312 155.613281 184.765625 155.714844 C 187.742188 155.78125 190.691406 155.75 193.667969 155.648438 C 196.75 155.546875 199.832031 155.414062 202.878906 155.210938 C 203.613281 155.179688 204.351562 155.078125 205.152344 155.011719 C 204.953125 154.308594 204.71875 153.671875 204.652344 152.96875 C 204.585938 152.0625 204.617188 151.15625 204.652344 150.25 C 204.785156 145.691406 204.886719 141.132812 204.988281 136.609375 C 205.019531 135.535156 205.019531 134.464844 205.054688 133.390625 C 205.085938 132.789062 205.386719 132.417969 205.855469 132.316406 C 206.292969 132.21875 206.59375 132.417969 206.929688 132.988281 C 207.097656 133.257812 207.128906 133.625 207.464844 133.757812 C 207.832031 133.894531 208.035156 134.230469 208.199219 134.5625 C 208.902344 135.738281 209.742188 136.808594 210.746094 137.78125 C 211.011719 138.050781 211.28125 138.285156 211.550781 138.554688 C 211.882812 138.921875 211.882812 139.425781 211.582031 139.792969 C 211.316406 140.128906 210.878906 140.230469 210.410156 139.960938 C 210.242188 139.859375 210.109375 139.757812 209.976562 139.625 C 209.304688 138.957031 208.601562 138.351562 208.066406 137.582031 C 207.765625 137.144531 207.363281 136.976562 206.828125 137.011719 C 206.761719 138.957031 206.695312 140.867188 206.660156 142.777344 C 206.59375 144.722656 206.59375 146.699219 206.492188 148.644531 C 206.425781 149.882812 206.425781 151.125 206.492188 152.332031 C 206.59375 154.339844 207.597656 155.75 209.441406 156.554688 C 209.605469 156.621094 209.808594 156.820312 210.074219 156.65625 C 210.109375 156.519531 210.144531 156.351562 210.144531 156.21875 C 210.210938 154.242188 210.277344 152.261719 210.308594 150.285156 C 210.34375 147.839844 210.34375 145.425781 210.34375 142.976562 C 210.34375 142.777344 210.34375 142.609375 210.34375 142.40625 C 210.410156 141.90625 210.710938 141.636719 211.214844 141.636719 C 211.75 141.601562 212.085938 141.871094 212.183594 142.375 C 212.21875 142.542969 212.21875 142.742188 212.21875 142.945312 C 212.183594 145.960938 212.152344 148.945312 212.117188 151.960938 C 212.085938 153.671875 212.019531 155.378906 211.949219 157.089844 C 211.949219 157.292969 211.851562 157.558594 212.050781 157.695312 C 212.886719 158.230469 213.660156 158.933594 214.730469 159.066406 C 215.933594 159.203125 217.140625 159.066406 218.347656 158.933594 C 220.457031 158.699219 222.53125 158.261719 224.605469 157.894531 C 227.921875 157.359375 231.269531 156.820312 234.585938 156.351562 C 236.660156 156.050781 238.703125 155.683594 240.8125 155.613281 C 241.683594 155.582031 242.585938 155.546875 243.421875 155.3125 C 244.460938 155.046875 245.164062 154.375 245.367188 153.300781 C 245.464844 152.632812 245.566406 151.996094 245.5 151.289062 C 245.398438 149.984375 245.265625 148.675781 245.265625 147.367188 C 245.230469 145.089844 245.296875 142.808594 245.132812 140.53125 C 244.964844 138.6875 244.328125 137.113281 243.023438 135.769531 C 242.417969 135.167969 241.78125 134.597656 241.078125 134.09375 C 240.644531 133.757812 240.140625 133.457031 239.742188 133.089844 C 239.273438 132.71875 239.203125 132.117188 239.574219 131.648438 C 239.90625 131.246094 240.277344 131.210938 240.84375 131.613281 C 241.816406 132.285156 242.753906 133.023438 243.625 133.792969 C 245.667969 135.601562 246.839844 137.816406 247.105469 140.5625 C 247.308594 142.742188 247.273438 144.886719 247.242188 147.066406 C 247.207031 148.273438 247.140625 149.480469 247.242188 150.6875 C 247.542969 150.652344 247.808594 150.621094 248.078125 150.585938 C 251.558594 149.917969 255.074219 149.246094 258.558594 148.542969 C 264.652344 147.300781 270.644531 145.792969 276.503906 143.714844 C 283.566406 141.234375 290.199219 137.949219 296.191406 133.390625 C 296.324219 133.289062 296.523438 133.089844 296.660156 133.121094 C 297.363281 133.191406 297.261719 132.71875 297.296875 132.285156 C 297.53125 128.597656 297.796875 124.910156 297.964844 121.222656 C 298.03125 119.914062 298.300781 118.640625 298.03125 117.300781 C 297.863281 116.53125 298.632812 116.058594 299.335938 116.460938 C 300.074219 116.898438 300.878906 117.097656 301.714844 117.167969 C 302.183594 117.199219 302.6875 117.265625 303.15625 117.335938 C 304.996094 117.601562 306.035156 118.609375 306.335938 120.417969 C 306.402344 120.886719 306.46875 121.390625 306.503906 121.859375 C 306.671875 125.480469 306.871094 129.066406 307.039062 132.6875 C 307.105469 133.691406 307.140625 134.699219 307.207031 135.703125 C 307.539062 135.636719 307.707031 135.402344 307.910156 135.234375 C 309.082031 134.195312 310.152344 133.023438 311.089844 131.75 C 313.03125 129.167969 314.472656 126.285156 315.910156 123.402344 C 316.046875 123.101562 316.046875 122.832031 316.011719 122.53125 C 315.910156 121.289062 315.777344 120.082031 315.644531 118.84375 C 315.507812 117.367188 315.34375 115.859375 315.175781 114.214844 C 314.003906 115.589844 312.730469 116.460938 311.324219 117.265625 C 310.957031 117.46875 310.621094 117.667969 310.253906 117.835938 C 309.683594 118.105469 309.179688 117.9375 308.945312 117.433594 C 308.710938 116.964844 308.878906 116.53125 309.382812 116.226562 C 309.683594 116.027344 309.984375 115.894531 310.285156 115.726562 C 311.390625 115.089844 312.496094 114.382812 313.367188 113.445312 C 314.101562 112.640625 314.640625 111.734375 314.738281 110.597656 C 314.773438 110.195312 314.671875 109.960938 314.304688 109.757812 C 313.433594 109.324219 312.597656 108.851562 311.792969 108.351562 C 311.457031 108.148438 311.257812 108.183594 310.957031 108.449219 C 309.882812 109.488281 308.710938 110.460938 307.507812 111.332031 C 305.5 112.773438 303.355469 113.980469 301.078125 114.921875 C 300.507812 115.15625 300.007812 114.953125 299.804688 114.453125 C 299.605469 113.980469 299.804688 113.546875 300.308594 113.246094 C 300.507812 113.144531 300.742188 113.042969 300.976562 112.941406 C 304.058594 111.570312 306.835938 109.757812 309.316406 107.445312 C 309.648438 107.144531 309.75 106.875 309.75 106.40625 C 309.71875 105 309.617188 103.558594 309.484375 102.148438 C 309.113281 98.058594 308.546875 93.96875 307.773438 89.914062 C 306.234375 81.800781 303.925781 73.957031 300.609375 66.382812 C 298.03125 60.480469 294.886719 54.953125 290.902344 49.855469 C 286.816406 44.660156 282.628906 39.53125 278.210938 34.605469 C 274.628906 30.582031 270.878906 26.726562 266.691406 23.339844 C 266.191406 22.9375 265.722656 22.503906 265.386719 21.933594 C 264.046875 19.789062 262.171875 18.246094 259.996094 16.972656 C 257.988281 15.796875 255.84375 14.859375 253.667969 14.023438 C 247.609375 11.742188 241.382812 9.964844 235.085938 8.390625 C 234.082031 8.15625 233.042969 7.953125 232.039062 7.71875 C 231.90625 7.6875 231.671875 7.550781 231.636719 7.789062 C 231.636719 8.257812 231.203125 8.222656 230.96875 8.324219 C 228.121094 9.53125 225.277344 10.804688 222.496094 12.179688 C 212.722656 17.039062 204.25 23.609375 197.019531 31.820312 C 193.132812 36.246094 189.585938 40.871094 186.101562 45.632812 C 184.363281 48.011719 182.554688 50.359375 180.945312 52.804688 C 178.570312 56.394531 176.761719 60.28125 175.1875 64.269531 C 172.175781 71.746094 170 79.457031 168.089844 87.265625 C 166.648438 93.199219 165.410156 99.164062 164.273438 105.164062 C 163.601562 108.71875 163 112.273438 162.429688 115.859375 C 161.960938 118.875 161.492188 121.894531 161.058594 124.910156 C 160.625 127.894531 160.253906 130.910156 159.886719 133.894531 C 159.585938 136.238281 159.316406 138.621094 159.050781 141 C 158.679688 143.984375 158.378906 146.964844 158.144531 149.949219 C 158.113281 150.417969 157.945312 150.722656 157.542969 150.988281 C 155.03125 152.566406 152.519531 154.140625 150.011719 155.78125 C 149.542969 156.085938 149.105469 156.117188 148.570312 156.015625 C 143.246094 155.011719 137.890625 154.007812 132.566406 153 C 127.441406 152.027344 122.320312 150.988281 117.265625 149.78125 C 115.757812 149.414062 114.25 149.046875 112.8125 148.507812 C 111.640625 148.074219 110.96875 147.335938 110.835938 146.027344 C 110.703125 144.753906 110.703125 143.515625 110.804688 142.273438 C 111.003906 139.191406 111.40625 136.105469 111.839844 133.023438 C 112.511719 127.992188 113.347656 123.03125 114.183594 118.039062 C 115.421875 110.628906 116.761719 103.222656 118.101562 95.8125 C 119.675781 87.332031 121.25 78.851562 122.988281 70.4375 C 123.324219 68.863281 123.59375 67.289062 124.195312 65.777344 C 126.808594 59.308594 130.121094 53.242188 134.003906 47.476562 C 138.660156 40.503906 144.050781 34.101562 149.910156 28.132812 C 153.960938 24.046875 158.210938 20.15625 162.699219 16.535156 C 164.140625 15.363281 165.644531 14.191406 167.117188 13.015625 C 166.785156 13.015625 166.550781 13.117188 166.316406 13.21875 C 156.773438 16.636719 147.832031 21.261719 139.429688 26.929688 C 133.769531 30.78125 128.449219 35.074219 123.558594 39.832031 C 119.875 43.386719 116.730469 47.375 113.882812 51.597656 C 109.496094 58.136719 106.015625 65.140625 103.035156 72.449219 C 99.050781 82.238281 96.105469 92.292969 93.960938 102.617188 C 93.660156 104.058594 93.292969 105.5 93.191406 106.976562 C 93.058594 109.859375 92.921875 112.742188 92.789062 115.65625 C 92.621094 120.21875 92.453125 124.808594 92.253906 129.367188 C 92.1875 130.742188 92.085938 132.082031 92.054688 133.457031 C 91.953125 135.636719 92.890625 137.277344 94.765625 138.386719 C 96.039062 139.121094 97.308594 139.757812 98.617188 140.398438 C 101.226562 141.671875 103.90625 142.742188 106.617188 143.75 C 107.289062 143.984375 107.523438 144.484375 107.320312 145.054688 C 107.121094 145.59375 106.71875 145.726562 106.015625 145.492188 C 102.332031 144.117188 98.683594 142.609375 95.234375 140.765625 C 93.15625 139.660156 91.351562 138.285156 90.578125 135.871094 C 90.144531 136.140625 89.742188 136.171875 89.308594 136.207031 C 86.527344 136.375 83.851562 136.003906 81.273438 135.035156 C 80.804688 134.867188 80.46875 134.898438 80.066406 135.132812 C 77.789062 136.507812 75.511719 137.816406 73.238281 139.222656 C 69.453125 141.535156 65.738281 143.984375 62.253906 146.800781 C 60.648438 148.140625 59.074219 149.515625 57.835938 151.191406 C 57.265625 151.929688 56.761719 152.730469 56.460938 153.636719 C 55.859375 155.414062 56.328125 157.054688 57.769531 158.261719 C 58.371094 158.800781 59.074219 159.234375 59.742188 159.636719 C 62.355469 161.144531 65.132812 162.386719 67.945312 163.527344 C 75.246094 166.507812 82.746094 168.957031 90.34375 171.203125 C 101.328125 174.453125 112.445312 177.203125 123.660156 179.480469 C 131.292969 181.023438 138.960938 182.398438 146.660156 183.402344 C 151.148438 183.972656 155.636719 184.410156 160.15625 184.578125 C 164.207031 184.746094 168.222656 184.746094 172.273438 184.511719 C 175.789062 184.308594 179.273438 183.972656 182.722656 183.539062 C 188.179688 182.800781 193.601562 181.761719 198.960938 180.519531 C 205.992188 178.914062 212.921875 177.035156 219.820312 175.023438 C 231.570312 171.636719 243.289062 168.183594 255.007812 164.765625 C 265.320312 161.75 275.566406 158.664062 285.675781 155.046875 C 292.207031 152.699219 298.667969 150.21875 304.828125 147 C 307.742188 145.492188 310.554688 143.847656 313.097656 141.769531 C 314.707031 140.429688 316.210938 138.988281 317.285156 137.179688 C 318.320312 135.46875 318.890625 133.625 318.859375 131.613281 C 318.859375 129.601562 318.355469 127.894531 317.652344 126.25 Z M 274.460938 43.988281 C 274.460938 42.882812 275.464844 42.28125 276.4375 42.785156 C 276.636719 42.882812 276.839844 43.050781 277.003906 43.21875 C 280.519531 46.402344 283.234375 50.191406 285.207031 54.480469 C 285.375 54.851562 285.511719 55.21875 285.476562 55.621094 C 285.410156 56.15625 285.042969 56.59375 284.574219 56.726562 C 283.96875 56.894531 283.367188 56.695312 283.066406 56.226562 C 282.933594 56.023438 282.863281 55.789062 282.765625 55.589844 C 280.890625 51.566406 278.3125 48.046875 275.03125 45.0625 C 274.660156 44.761719 274.425781 44.425781 274.460938 43.988281 Z M 235.554688 13.519531 C 236.023438 13.117188 236.527344 13.050781 237.195312 13.386719 C 238.132812 13.886719 239.105469 14.359375 240.074219 14.792969 C 242.753906 15.964844 245.5 16.871094 248.246094 17.84375 C 250.921875 18.78125 253.570312 19.789062 256.046875 21.195312 C 258.757812 22.703125 261.136719 24.648438 263.378906 26.761719 C 265.488281 28.773438 267.429688 30.949219 269.371094 33.128906 C 269.671875 33.464844 269.90625 33.800781 269.875 34.203125 C 269.875 34.90625 269.539062 35.339844 269.003906 35.578125 C 268.5 35.8125 268.03125 35.675781 267.5625 35.175781 C 266.324219 33.832031 265.152344 32.457031 263.914062 31.117188 C 261.4375 28.503906 258.824219 26.054688 255.777344 24.144531 C 253.433594 22.671875 250.890625 21.632812 248.3125 20.660156 C 245.398438 19.585938 242.453125 18.683594 239.574219 17.476562 C 238.265625 16.9375 236.960938 16.367188 235.757812 15.632812 C 234.851562 15.160156 234.785156 14.191406 235.554688 13.519531 Z M 214.695312 140.53125 C 214.898438 140.5625 215.066406 140.5625 215.265625 140.5625 C 218.347656 140.832031 221.425781 140.832031 224.472656 140.699219 C 227.621094 140.5625 230.765625 140.261719 233.882812 139.828125 C 236.960938 139.425781 240.007812 138.855469 243.054688 138.285156 C 243.757812 138.152344 244.09375 138.316406 244.292969 138.855469 C 244.496094 139.390625 244.328125 139.828125 243.757812 139.996094 C 243.121094 140.160156 242.453125 140.296875 241.78125 140.398438 C 237.699219 141.132812 233.578125 141.671875 229.460938 142.074219 C 226.648438 142.339844 223.804688 142.542969 220.957031 142.574219 C 218.914062 142.609375 216.839844 142.542969 214.796875 142.375 C 214.394531 142.339844 214.058594 142.242188 213.859375 141.871094 C 213.558594 141.234375 213.960938 140.429688 214.695312 140.53125 Z M 165.242188 179.917969 C 164.707031 179.882812 164.171875 179.851562 163.636719 179.816406 C 160.722656 179.683594 157.8125 179.480469 154.898438 179.246094 C 152.488281 179.046875 150.042969 178.8125 147.632812 178.511719 C 145.457031 178.277344 143.28125 177.972656 141.105469 177.671875 C 138.527344 177.304688 135.914062 176.867188 133.335938 176.433594 C 132.398438 176.296875 131.496094 176.128906 130.589844 175.929688 C 129.753906 175.761719 129.386719 175.226562 129.519531 174.453125 C 129.652344 173.714844 130.355469 173.148438 131.09375 173.28125 C 132.332031 173.480469 133.570312 173.714844 134.808594 173.953125 C 137.488281 174.421875 140.132812 174.855469 142.8125 175.15625 C 145.15625 175.460938 147.53125 175.761719 149.875 176.03125 C 151.816406 176.230469 153.757812 176.398438 155.703125 176.566406 C 158.914062 176.867188 162.164062 177 165.378906 177.203125 C 166.214844 177.269531 166.683594 177.875 166.648438 178.746094 C 166.617188 179.515625 166.113281 179.953125 165.242188 179.917969 Z M 191.996094 177.402344 C 191.660156 177.570312 191.257812 177.605469 190.925781 177.671875 C 189.050781 177.875 187.207031 178.109375 185.332031 178.242188 C 183.558594 178.34375 181.75 178.476562 179.976562 178.578125 C 179.976562 178.578125 179.976562 178.578125 179.976562 178.542969 C 179.441406 178.542969 178.90625 178.578125 178.367188 178.542969 C 177.664062 178.511719 177.195312 178.007812 177.164062 177.304688 C 177.128906 176.597656 177.597656 175.996094 178.335938 175.929688 C 179.039062 175.863281 179.773438 175.828125 180.476562 175.828125 C 183.792969 175.761719 187.109375 175.460938 190.386719 175.058594 C 190.722656 175.023438 191.089844 174.992188 191.425781 174.992188 C 192.0625 174.992188 192.566406 175.394531 192.699219 175.996094 C 192.832031 176.566406 192.566406 177.101562 191.996094 177.402344 Z M 191.996094 177.402344 " fill-opacity="1" fill-rule="nonzero"/><path fill="#f5ab34" d="M 208 4.300781 C 207.933594 3.964844 207.597656 3.964844 207.363281 3.898438 C 207.261719 3.867188 207.164062 3.832031 207.0625 3.832031 C 205.421875 3.664062 203.746094 3.53125 202.105469 3.496094 C 200.300781 3.464844 198.492188 3.328125 196.648438 3.261719 C 195.542969 3.226562 194.40625 3.261719 193.300781 3.027344 C 193.132812 3.0625 193 3.0625 192.832031 3.128906 C 189.753906 4 186.707031 5.039062 183.726562 6.277344 C 179.339844 8.089844 175.085938 10.132812 171.238281 12.984375 C 164.171875 18.179688 157.542969 23.878906 151.382812 30.144531 C 147.164062 34.4375 143.214844 38.996094 139.597656 43.824219 C 134.441406 50.695312 130.054688 57.96875 126.773438 65.914062 C 126.503906 66.582031 126.171875 67.253906 126.035156 67.957031 C 125.636719 69.769531 125.234375 71.578125 124.898438 73.386719 C 123.894531 78.550781 122.890625 83.679688 121.917969 88.839844 C 121.082031 93.265625 120.246094 97.722656 119.472656 102.183594 C 118.738281 106.371094 117.96875 110.5625 117.265625 114.753906 C 116.59375 118.808594 115.925781 122.898438 115.289062 126.953125 C 114.789062 130.140625 114.351562 133.355469 113.917969 136.574219 C 113.617188 138.820312 113.382812 141.101562 113.246094 143.378906 C 113.214844 143.984375 113.246094 144.621094 113.246094 145.222656 C 113.28125 145.792969 113.515625 146.164062 114.085938 146.328125 C 114.519531 146.429688 114.953125 146.597656 115.390625 146.730469 C 119.003906 147.703125 122.6875 148.476562 126.339844 149.210938 C 132.230469 150.417969 138.15625 151.527344 144.050781 152.632812 C 144.71875 152.765625 144.753906 152.730469 144.820312 152.027344 C 144.953125 150.453125 145.054688 148.878906 145.1875 147.300781 C 145.355469 144.886719 145.558594 142.441406 145.722656 139.996094 C 145.957031 136.640625 146.226562 133.257812 146.460938 129.90625 C 146.660156 127.355469 146.828125 124.777344 147.03125 122.226562 C 147.265625 119.179688 147.5 116.128906 147.734375 113.109375 C 147.96875 110.394531 148.167969 107.679688 148.4375 104.964844 C 148.703125 102.015625 149.039062 99.097656 149.339844 96.183594 C 149.609375 93.800781 149.875 91.457031 150.410156 89.109375 C 151.082031 86.125 152.050781 83.242188 152.988281 80.328125 C 155.769531 71.777344 159.082031 63.464844 163.035156 55.386719 C 166.347656 48.550781 170.097656 41.945312 174.550781 35.742188 C 175.355469 34.605469 176.191406 33.496094 176.996094 32.359375 C 176.5625 32.125 176.394531 32.558594 176.191406 32.695312 C 176.828125 31.855469 177.332031 30.851562 177.867188 29.878906 C 179.40625 26.960938 181.179688 24.246094 183.625 22.035156 C 185.164062 20.625 186.773438 19.285156 188.28125 17.84375 C 190.222656 16 192.363281 14.425781 194.640625 12.949219 C 198.257812 10.636719 202.007812 8.457031 205.691406 6.210938 C 206.359375 5.808594 207.027344 5.441406 207.632812 4.9375 C 207.800781 4.738281 208.035156 4.601562 208 4.300781 Z M 160.957031 57.199219 C 160.289062 58.875 159.585938 60.550781 158.882812 62.226562 C 157.945312 64.503906 157.039062 66.851562 156.003906 69.097656 C 154.796875 71.710938 153.859375 74.394531 153.058594 77.140625 C 152.519531 78.984375 151.917969 80.863281 151.316406 82.707031 C 151.28125 82.808594 151.25 82.875 151.148438 83.074219 C 150.949219 82.707031 151.015625 82.40625 151.046875 82.101562 C 151.25 80.628906 151.25 79.121094 151.046875 77.644531 C 150.980469 77.210938 150.949219 76.773438 150.847656 76.371094 C 150.511719 75.132812 149.675781 74.460938 148.570312 73.890625 C 146.59375 72.886719 144.484375 72.515625 142.375 72.011719 C 141.269531 71.746094 140.132812 71.542969 139.027344 71.308594 C 138.023438 71.109375 136.984375 71.007812 135.949219 70.875 C 134.375 70.640625 132.765625 70.503906 131.261719 69.933594 C 129.988281 69.464844 128.683594 69.097656 127.242188 68.730469 C 128.882812 67.085938 129.953125 65.242188 130.019531 62.796875 C 131.359375 63.96875 132.832031 64.070312 134.308594 64.304688 C 135.78125 64.539062 137.285156 64.503906 138.761719 64.738281 C 139.027344 64.773438 139.261719 64.773438 139.496094 64.773438 C 140.636719 64.773438 141.773438 64.90625 142.910156 65.074219 C 143.515625 65.175781 144.152344 65.175781 144.753906 65.207031 C 145.65625 65.277344 146.59375 65.445312 147.53125 65.445312 C 148.636719 65.410156 149.742188 65.609375 150.878906 65.578125 C 151.515625 65.578125 152.152344 65.476562 152.722656 65.140625 C 153.960938 64.472656 155.066406 63.699219 156.035156 62.660156 C 158.144531 60.382812 159.886719 57.835938 161.5625 55.21875 C 161.628906 55.152344 161.660156 55.117188 161.761719 55.117188 C 161.5625 55.855469 161.226562 56.527344 160.957031 57.199219 Z M 160.957031 57.199219 " fill-opacity="1" fill-rule="nonzero"/><path fill="#ef8c24" d="M 147.199219 152.398438 C 147.464844 149.078125 147.699219 145.960938 147.933594 142.808594 C 148.101562 140.398438 148.269531 137.949219 148.46875 135.535156 C 148.738281 132.050781 148.972656 128.53125 149.238281 125.042969 C 149.40625 122.699219 149.574219 120.351562 149.777344 118.003906 C 150.011719 115.054688 150.246094 112.070312 150.511719 109.121094 C 150.746094 106.574219 150.949219 103.992188 151.214844 101.445312 C 151.617188 97.421875 151.953125 93.398438 152.824219 89.445312 C 153.527344 86.261719 154.5625 83.144531 155.601562 80.058594 C 158.546875 71.308594 162.03125 62.796875 166.179688 54.550781 C 169.664062 47.644531 173.582031 41.007812 178.269531 34.839844 C 182.519531 29.207031 187.410156 24.210938 193.167969 20.089844 C 198.792969 16.035156 204.449219 12.011719 210.410156 8.492188 C 213.355469 6.78125 216.371094 5.207031 219.449219 3.796875 C 220.1875 3.464844 220.890625 3.296875 221.695312 3.394531 C 223.199219 3.5625 224.640625 3.832031 226.011719 4.535156 C 226.78125 4.9375 227.453125 5.472656 227.953125 6.179688 C 228.355469 6.714844 228.355469 6.75 227.753906 7.015625 C 226.046875 7.753906 224.339844 8.523438 222.632812 9.363281 C 214.898438 13.117188 207.800781 17.808594 201.503906 23.675781 C 196.414062 28.4375 191.960938 33.734375 187.777344 39.261719 C 185.164062 42.683594 182.621094 46.167969 180.109375 49.6875 C 177.265625 53.644531 175.121094 58 173.28125 62.492188 C 170.566406 69.097656 168.492188 75.902344 166.683594 82.808594 C 164.609375 90.71875 162.96875 98.695312 161.492188 106.742188 C 160.523438 112.207031 159.617188 117.667969 158.816406 123.132812 C 158.144531 127.828125 157.542969 132.519531 156.972656 137.210938 C 156.539062 141 156.136719 144.820312 155.769531 148.644531 C 155.734375 149.078125 155.566406 149.3125 155.234375 149.515625 C 153.257812 150.753906 151.28125 151.996094 149.339844 153.269531 C 148.636719 153.738281 148 153.300781 147.332031 153.203125 C 147.199219 153.167969 147.199219 153 147.199219 152.867188 C 147.199219 152.632812 147.199219 152.429688 147.199219 152.398438 Z M 147.199219 152.398438 " fill-opacity="1" fill-rule="nonzero"/><path fill="#7d848d" d="M 245.265625 170.097656 C 246.269531 169.695312 247.207031 169.460938 248.109375 169.191406 C 259.160156 165.972656 270.242188 162.753906 281.15625 159.066406 C 286.917969 157.125 292.609375 155.078125 298.199219 152.699219 C 298.433594 152.597656 298.667969 152.429688 298.9375 152.464844 C 299.101562 152.566406 299.035156 152.699219 299.003906 152.832031 C 296.625 161.28125 294.316406 169.761719 291.703125 178.140625 C 291.503906 178.8125 291.269531 179.480469 291.035156 180.117188 C 290.832031 180.6875 290.800781 180.722656 290.230469 180.589844 C 288.757812 180.285156 287.316406 179.953125 285.84375 179.648438 C 275.398438 177.335938 264.953125 174.921875 254.507812 172.410156 C 251.492188 171.636719 248.414062 170.867188 245.265625 170.097656 Z M 245.265625 170.097656 " fill-opacity="1" fill-rule="nonzero"/><path fill="#f5ab34" d="M 90.246094 134.296875 C 89.242188 134.296875 88.269531 134.328125 87.332031 134.296875 C 85.558594 134.261719 83.851562 133.894531 82.144531 133.355469 C 81.742188 133.222656 81.574219 133.054688 81.605469 132.550781 C 81.839844 128.53125 82.074219 124.472656 82.777344 120.519531 C 82.914062 119.816406 83.082031 119.109375 83.246094 118.40625 C 83.382812 117.835938 83.414062 117.835938 83.949219 117.9375 C 85.054688 118.171875 86.160156 118.304688 87.265625 118.441406 C 88.269531 118.539062 89.308594 118.539062 90.3125 118.539062 C 90.714844 118.539062 90.8125 118.640625 90.8125 119.042969 C 90.746094 120.621094 90.679688 122.195312 90.613281 123.769531 C 90.480469 125.914062 90.378906 128.027344 90.3125 130.171875 C 90.246094 131.480469 90.210938 132.820312 90.246094 134.296875 Z M 90.246094 134.296875 " fill-opacity="1" fill-rule="nonzero"/><path fill="#7d848d" d="M 295.085938 175.726562 C 295.519531 174.21875 295.957031 172.777344 296.359375 171.304688 C 297.929688 165.871094 299.472656 160.410156 300.976562 154.945312 C 301.011719 154.84375 301.046875 154.742188 301.046875 154.644531 C 301.210938 154.105469 301.210938 154.105469 301.816406 154.171875 C 302.6875 154.308594 303.554688 154.441406 304.425781 154.542969 C 305.128906 154.644531 305.128906 154.609375 304.960938 155.3125 C 304.160156 158.296875 303.320312 161.3125 302.550781 164.296875 C 301.546875 168.085938 300.542969 171.90625 299.539062 175.695312 C 299.335938 176.433594 299.335938 176.464844 298.566406 176.363281 C 297.429688 176.265625 296.257812 176.097656 295.085938 175.726562 Z M 295.085938 175.726562 " fill-opacity="1" fill-rule="nonzero"/><path fill="#f5ab34" d="M 304.929688 128.0625 C 305.03125 130.238281 305.164062 132.386719 305.265625 134.5625 C 305.296875 135.132812 305.265625 135.167969 304.695312 135.101562 C 303.121094 134.867188 301.515625 134.632812 299.941406 134.394531 C 299.171875 134.261719 299.003906 134.027344 299.035156 133.15625 C 299.101562 131.546875 299.203125 129.9375 299.304688 128.363281 C 299.4375 126.050781 299.605469 123.769531 299.738281 121.457031 C 299.773438 120.6875 299.875 119.914062 299.875 119.144531 C 299.875 118.777344 300.007812 118.675781 300.34375 118.742188 C 301.144531 118.875 301.984375 118.941406 302.820312 119.078125 C 303.992188 119.3125 304.492188 119.847656 304.5625 121.054688 C 304.695312 123.234375 304.796875 125.445312 304.894531 127.625 C 304.894531 127.726562 304.894531 127.894531 304.929688 128.0625 C 304.894531 128.0625 304.894531 128.0625 304.929688 128.0625 Z M 304.929688 128.0625 " fill-opacity="1" fill-rule="nonzero"/><path fill="#f5ab34" d="M 84.085938 116.027344 C 85.859375 113.246094 88.335938 111.402344 91.082031 109.65625 C 91.082031 110.664062 91.117188 111.535156 91.082031 112.40625 C 91.046875 113.648438 90.949219 114.855469 90.949219 116.09375 C 90.949219 116.5625 90.78125 116.664062 90.34375 116.695312 C 89.074219 116.796875 87.835938 116.628906 86.59375 116.53125 C 85.792969 116.429688 84.953125 116.328125 84.085938 116.027344 Z M 84.085938 116.027344 " fill-opacity="1" fill-rule="nonzero"/></svg>